<svg version="1.1" xmlns="http://www.w3.org/2000/svg" viewBox="0 0 547.0547750609913 518.5209797064402" width="547.0547750609913" height="518.5209797064402">
  <!-- svg-source:excalidraw -->
  
  <defs>
    <style>
      @font-face {
        font-family: "Virgil";
        src: url("https://excalidraw.com/Virgil.woff2");
      }
      @font-face {
        font-family: "Cascadia";
        src: url("https://excalidraw.com/Cascadia.woff2");
      }
    </style>
  </defs>
  <rect x="0" y="0" width="547.0547750609913" height="518.5209797064402" fill="#ffffff"></rect><g transform="translate(10 45.03013505009619) rotate(0 191.5 88.5)"><text x="191.5" y="24.4" font-family="Virgil, Segoe UI Emoji" font-size="28px" fill="#000000" text-anchor="middle" style="white-space: pre;" direction="ltr"></text><text x="191.5" y="59.8" font-family="Virgil, Segoe UI Emoji" font-size="28px" fill="#000000" text-anchor="middle" style="white-space: pre;" direction="ltr">Grid AC: 120V , 60 Hertz</text><text x="191.5" y="95.19999999999999" font-family="Virgil, Segoe UI Emoji" font-size="28px" fill="#000000" text-anchor="middle" style="white-space: pre;" direction="ltr"></text><text x="191.5" y="130.6" font-family="Virgil, Segoe UI Emoji" font-size="28px" fill="#000000" text-anchor="middle" style="white-space: pre;" direction="ltr"></text><text x="191.5" y="166" font-family="Virgil, Segoe UI Emoji" font-size="28px" fill="#000000" text-anchor="middle" style="white-space: pre;" direction="ltr">Variable AC: ?V, ? frequency</text></g><g transform="translate(63.74170146912911 317.8354641821371) rotate(0 81 88.5)"><text x="81" y="24.4" font-family="Virgil, Segoe UI Emoji" font-size="28px" fill="#000000" text-anchor="middle" style="white-space: pre;" direction="ltr"></text><text x="81" y="59.8" font-family="Virgil, Segoe UI Emoji" font-size="28px" fill="#000000" text-anchor="middle" style="white-space: pre;" direction="ltr"></text><text x="81" y="95.19999999999999" font-family="Virgil, Segoe UI Emoji" font-size="28px" fill="#000000" text-anchor="middle" style="white-space: pre;" direction="ltr">Fixed DC</text><text x="81" y="130.6" font-family="Virgil, Segoe UI Emoji" font-size="28px" fill="#000000" text-anchor="middle" style="white-space: pre;" direction="ltr"></text><text x="81" y="166" font-family="Virgil, Segoe UI Emoji" font-size="28px" fill="#000000" text-anchor="middle" style="white-space: pre;" direction="ltr">Variable DC</text></g><g stroke-linecap="round"><g transform="translate(305.8774632261079 350.86846296120154) rotate(0 103.34344497634096 36.04804039634942)"><path d="M-1.65 3.71 C2.2 22.18, -3.45 41.37, -3.73 67.46 M0.37 1.32 C0.14 14.83, -1.41 28.55, -3.23 69.02 M-6.1 70.77 C42.77 63.15, 84.24 64.08, 212.78 57.98 M-1.51 68.47 C77.16 61.54, 162.48 60.47, 210.5 59.89" stroke="#000000" stroke-width="4" fill="none"></path></g></g><g stroke-linecap="round"><g transform="translate(305.87746322610747 430.2062998568134) rotate(0 103.65240959714183 34.72380858846225)"><path d="M3.71 2.69 C0.78 20.38, -1.25 44.21, -3.27 64.34 M1.32 0.52 C-1.63 21.41, -3.6 43.4, -1.7 65.82 M0.04 68.93 C62.32 66.67, 133.47 67.98, 208.66 63.19 M-2.26 66 C79.47 63.11, 164.31 58.13, 210.57 61.9" stroke="#000000" stroke-width="4" fill="none"></path></g></g><g stroke-linecap="round"><g transform="translate(421.52886982845666 58.639415004340776) rotate(0 51.49503139719338 29.56954854983952)"><path d="M2.69 1.99 C-3.24 17.62, -2.57 33.02, -5.82 58.97 M0.52 0.17 C-0.76 13.19, -1.14 29.35, -4.34 58.52 M-1.05 54.34 C-4.2 48.29, -0.1 37.73, 0.46 31.14 M-4.4 57.59 C-1.29 48.14, -3.84 34.77, -1.02 27.87 M-2.06 26.3 C31.38 34.28, 66.57 32.18, 108.19 30.5 M-1.02 27.64 C34.5 29.1, 70.34 29.35, 108.81 30.86" stroke="#000000" stroke-width="4" fill="none"></path></g></g><g stroke-linecap="round"><g transform="translate(421.8801253768138 84.26679559461797) rotate(0 53.72119157409553 5.556344719931726)"><path d="M0.81 0.6 C3.42 -3.42, 10.61 -28.65, 15.17 -23.02 C19.72 -17.39, 21.86 33.72, 28.14 34.37 C34.41 35.02, 46.2 -19.45, 52.8 -19.1 C59.41 -18.76, 60.73 36.5, 67.79 36.45 C74.84 36.4, 88.59 -19.46, 95.12 -19.41 C101.65 -19.37, 105.1 27.34, 106.98 36.72 M-0.23 -0.13 C2.82 -4.02, 12.98 -30.95, 17.56 -24.98 C22.14 -19.02, 21.44 34.47, 27.27 35.66 C33.1 36.85, 45.47 -18.08, 52.53 -17.86 C59.59 -17.65, 62.81 37.36, 69.6 36.96 C76.39 36.55, 86.94 -20.01, 93.29 -20.29 C99.63 -20.58, 105.7 25.79, 107.67 35.25" stroke="#364fc7" stroke-width="4" fill="none"></path></g></g><g transform="translate(396.709962107127 50.51818898644535) rotate(0 9.621788630418365 10.49649668772912)"><text x="9.621788630418363" y="14.992993375458244" font-family="Virgil, Segoe UI Emoji" font-size="16.32788373646753px" fill="#000000" text-anchor="middle" style="white-space: pre;" direction="ltr">+V</text></g><g transform="translate(395.94887632885184 106.84568528403213) rotate(0 7.87237251579684 10.496496687729122)"><text x="7.872372515796843" y="14.992993375458244" font-family="Virgil, Segoe UI Emoji" font-size="16.327883736467527px" fill="#000000" text-anchor="middle" style="white-space: pre;" direction="ltr">-V</text></g><g stroke-linecap="round"><g transform="translate(413.57438188797414 163.3689974485461) rotate(0 59.478506077883424 33.25697405483201)"><path d="M-0.65 -0.19 C-4.97 23.86, -5.04 46.7, -0.19 66.71 M-0.15 1.37 C-2.95 20.64, -2.17 38.75, -1.06 66.4 M-0.75 63.06 C0.77 62.1, 0.38 55.03, -1.37 27.44 M-3.35 65.24 C-1.75 56.47, -3.65 46.3, -4.52 31.62 M-0.61 31.32 C30.97 28.27, 64.42 28.4, 123.48 40.58 M-2.43 30.89 C35.9 29.79, 70.14 33.07, 120.41 36.55" stroke="#000000" stroke-width="4" fill="none"></path></g></g><g transform="translate(384.28509040671133 159.50963952803897) rotate(0 10.875364467926715 11.864033965010975)"><text x="10.87536446792672" y="16.728067930021947" font-family="Virgil, Segoe UI Emoji" font-size="18.455163945572618px" fill="#000000" text-anchor="middle" style="white-space: pre;" direction="ltr">+V</text></g><g transform="translate(381.80337052575806 210.9915010863034) rotate(0 8.898025473758224 11.864033965010975)"><text x="8.89802547375823" y="16.728067930021947" font-family="Virgil, Segoe UI Emoji" font-size="18.455163945572618px" fill="#000000" text-anchor="middle" style="white-space: pre;" direction="ltr">-V</text></g><g stroke-linecap="round"><g transform="translate(410.2774892080497 191.70085726802097) rotate(0 63.237562229046674 -5.877850335392203)"><path d="M0 0 C1.96 -3.45, 7.9 -16.69, 11.76 -20.67 C15.61 -24.66, 21.75 -33.98, 23.11 -23.92 C24.46 -13.85, 19.12 29.86, 19.86 39.73 C20.61 49.59, 25.2 42.77, 27.57 35.27 C29.93 27.77, 32.16 -3.31, 34.05 -5.27 C35.94 -7.23, 35.4 27.02, 38.92 23.51 C42.43 20, 50.33 -12.03, 55.13 -26.35 C59.93 -40.67, 65.06 -72.09, 67.7 -62.43 C70.33 -52.77, 67.49 23.71, 70.94 31.62 C74.39 39.52, 84.45 -18.85, 88.37 -15 C92.29 -11.15, 93.03 63.37, 94.45 54.72 C95.87 46.08, 95.13 -66.95, 96.88 -66.89 C98.64 -66.82, 102.9 47.77, 104.99 55.13 C107.08 62.49, 107.02 -22.23, 109.45 -22.7 C111.88 -23.17, 116.75 50.4, 119.58 52.29 C122.42 54.18, 125.33 -0.74, 126.48 -11.35 M0 0 C1.96 -3.45, 7.9 -16.69, 11.76 -20.67 C15.61 -24.66, 21.75 -33.98, 23.11 -23.92 C24.46 -13.85, 19.12 29.86, 19.86 39.73 C20.61 49.59, 25.2 42.77, 27.57 35.27 C29.93 27.77, 32.16 -3.31, 34.05 -5.27 C35.94 -7.23, 35.4 27.02, 38.92 23.51 C42.43 20, 50.33 -12.03, 55.13 -26.35 C59.93 -40.67, 65.06 -72.09, 67.7 -62.43 C70.33 -52.77, 67.49 23.71, 70.94 31.62 C74.39 39.52, 84.45 -18.85, 88.37 -15 C92.29 -11.15, 93.03 63.37, 94.45 54.72 C95.87 46.08, 95.13 -66.95, 96.88 -66.89 C98.64 -66.82, 102.9 47.77, 104.99 55.13 C107.08 62.49, 107.02 -22.23, 109.45 -22.7 C111.88 -23.17, 116.75 50.4, 119.58 52.29 C122.42 54.18, 125.33 -0.74, 126.48 -11.35" stroke="#364fc7" stroke-width="4" fill="none"></path></g></g><g stroke-linecap="round"><g transform="translate(311.4126611490574 407.75799716929544) rotate(0 101.78613958312985 -23.678346670395896)"><path d="M0 0 C13.49 1, 26.98 2, 45.7 3.38 M0 0 C16.85 1.25, 33.69 2.49, 45.7 3.38 M45.7 3.38 C46.68 -8.79, 47.65 -20.97, 49.85 -48.48 M45.7 3.38 C46.86 -11.05, 48.01 -25.48, 49.85 -48.48 M49.85 -48.48 C82.54 -49.17, 115.22 -49.85, 157.87 -50.74 M49.85 -48.48 C80.52 -49.12, 111.19 -49.76, 157.87 -50.74 M157.87 -50.74 C162.63 -34.53, 167.39 -18.32, 172.93 0.56 M157.87 -50.74 C163.38 -31.96, 168.9 -13.18, 172.93 0.56 M172.93 0.56 C183.49 -0.8, 194.04 -2.15, 203.57 -3.38 M172.93 0.56 C180.43 -0.4, 187.93 -1.37, 203.57 -3.38" stroke="#c92a2a" stroke-width="4" fill="none"></path></g></g><g stroke-linecap="round"><g transform="translate(309.5675951747412 490.7332343208285) rotate(0 96.5584526558996 -22.320461037612148)"><path d="M0 0 C6.54 0.23, 13.07 0.46, 30.08 1.05 M0 0 C6.27 0.22, 12.53 0.44, 30.08 1.05 M30.08 1.05 C39.78 -12.23, 49.48 -25.51, 55.4 -33.61 M30.08 1.05 C40.02 -12.56, 49.96 -26.17, 55.4 -33.61 M55.4 -33.61 C70.78 -36.33, 86.16 -39.05, 102.89 -42.01 M55.4 -33.61 C73.39 -36.79, 91.37 -39.98, 102.89 -42.01 M102.89 -42.01 C113.7 -36.64, 124.5 -31.26, 141.94 -22.58 M102.89 -42.01 C112.15 -37.41, 121.41 -32.8, 141.94 -22.58 M141.94 -22.58 C145.75 -18.2, 149.57 -13.81, 155.65 -6.83 M141.94 -22.58 C146.36 -17.51, 150.78 -12.43, 155.65 -6.83 M155.65 -6.83 C163.94 -13.89, 172.22 -20.96, 177.82 -25.73 M155.65 -6.83 C162.57 -12.73, 169.49 -18.63, 177.82 -25.73 M177.82 -25.73 C182.8 -32.23, 187.78 -38.74, 193.12 -45.69 M177.82 -25.73 C183.18 -32.73, 188.54 -39.72, 193.12 -45.69" stroke="#c92a2a" stroke-width="4" fill="none"></path></g></g><g transform="translate(279.9018815370214 349.49258341460984) rotate(0 9.621788630418365 10.49649668772912)"><text x="9.621788630418363" y="14.992993375458244" font-family="Virgil, Segoe UI Emoji" font-size="16.32788373646753px" fill="#000000" text-anchor="middle" style="white-space: pre;" direction="ltr">+V</text></g><g transform="translate(278.6546048771793 432.13886330532034) rotate(0 9.621788630418365 10.49649668772912)"><text x="9.621788630418363" y="14.992993375458244" font-family="Virgil, Segoe UI Emoji" font-size="16.32788373646753px" fill="#000000" text-anchor="middle" style="white-space: pre;" direction="ltr">+V</text></g><g transform="translate(277.7874391236792 407.60913974689913) rotate(0 10.5 10.5)"><text x="10.5" y="15" font-family="Virgil, Segoe UI Emoji" font-size="16.32788373646753px" fill="#000000" text-anchor="middle" style="white-space: pre;" direction="ltr">0V</text></g><g transform="translate(273.20309650665786 487.52097970644024) rotate(0 10.5 10.5)"><text x="10.5" y="15" font-family="Virgil, Segoe UI Emoji" font-size="16.32788373646753px" fill="#000000" text-anchor="middle" style="white-space: pre;" direction="ltr">0V</text></g><g transform="translate(97.41503366239522 305.33331298828125) rotate(0 188.76008056640617 23.833343505859375)"><text x="0" y="33.66668701171875" font-family="Virgil, Segoe UI Emoji" font-size="38.13334960937501px" fill="#000000" text-anchor="start" style="white-space: pre;" direction="ltr">Direct Current (DC)</text></g><g transform="translate(67.74840768583272 10) rotate(0 230.70676513671881 23.833343505859375)"><text x="0" y="33.66668701171875" font-family="Virgil, Segoe UI Emoji" font-size="38.13334960937499px" fill="#000000" text-anchor="start" style="white-space: pre;" direction="ltr">Alternating Current (AC)</text></g></svg>