<svg version="1.1" xmlns="http://www.w3.org/2000/svg" viewBox="0 0 1120.2314123448612 521.8268411000349" width="1120.2314123448612" height="521.8268411000349">
  <!-- svg-source:excalidraw -->
  
  <defs>
    <style>
      @font-face {
        font-family: "Virgil";
        src: url("https://excalidraw.com/Virgil.woff2");
      }
      @font-face {
        font-family: "Cascadia";
        src: url("https://excalidraw.com/Cascadia.woff2");
      }
    </style>
  </defs>
  <rect x="0" y="0" width="1120.2314123448612" height="521.8268411000349" fill="#ffffff"></rect><g stroke-linecap="round"><g transform="translate(52.02415525512947 288.94828871384726) rotate(0 528.7785256210553 3.2439276358049653)"><path d="M-0.2 -1.4 C373.01 8.59, 744.45 9.52, 1058.21 6.14 M-0.65 -0.49 C321.99 4.16, 641.7 7.9, 1057.97 6.86" stroke="#000000" stroke-width="4" fill="none"></path></g></g><g stroke-linecap="round"><g transform="translate(332.7527585329699 462.0128372739093) rotate(0 208.65169868549683 -81.81981171691434)"><path d="M-2.77 2.87 C77.71 -55.15, 148.08 -114.71, 205.76 -164.61 M-0.96 1.54 C61.59 -47.86, 126.62 -94.58, 207.18 -165.06 M206.62 -166.51 C274.02 -111.66, 348.18 -57.19, 415.65 1.69 M208.33 -165.48 C282.43 -109, 354.59 -51.45, 417.86 -1.23 M420.07 -2.87 C295.12 0.54, 173.29 0.84, -0.2 1.71 M417.87 -2.26 C327.91 -2.66, 239.47 -1.62, -0.89 0.16" stroke="#000000" stroke-width="4" fill="none"></path></g></g><g transform="translate(145.39462615949992 315.4059475173701) rotate(0 108.31601396862357 52.15215487378174)"><text x="108.31601396862358" y="37.15215487378173" font-family="Virgil, Segoe UI Emoji" font-size="41.26324341661852px" fill="#000000" text-anchor="middle" style="white-space: pre;" direction="ltr">Generation</text><text x="108.31601396862358" y="89.30430974756347" font-family="Virgil, Segoe UI Emoji" font-size="41.26324341661852px" fill="#000000" text-anchor="middle" style="white-space: pre;" direction="ltr">Production</text></g><g transform="translate(798.1513539029784 298.08156523339187) rotate(0 106.74175385180206 70.98844794998485)"><text x="106.74175385180206" y="33.32563196665657" font-family="Virgil, Segoe UI Emoji" font-size="37.30779746276577px" fill="#000000" text-anchor="middle" style="white-space: pre;" direction="ltr">Load</text><text x="106.74175385180206" y="80.65126393331315" font-family="Virgil, Segoe UI Emoji" font-size="37.30779746276577px" fill="#000000" text-anchor="middle" style="white-space: pre;" direction="ltr">Demand</text><text x="106.74175385180206" y="127.97689589996972" font-family="Virgil, Segoe UI Emoji" font-size="37.30779746276577px" fill="#000000" text-anchor="middle" style="white-space: pre;" direction="ltr">Consumption</text></g><g transform="translate(449.94778154219284 216.4066573464164) rotate(0 104 38)"><text x="104" y="27" font-family="Virgil, Segoe UI Emoji" font-size="30.183307770850355px" fill="#000000" text-anchor="middle" style="white-space: pre;" direction="ltr">Transmission</text><text x="104" y="65" font-family="Virgil, Segoe UI Emoji" font-size="30.183307770850355px" fill="#000000" text-anchor="middle" style="white-space: pre;" direction="ltr">&amp; Distribution</text></g><g stroke-linecap="round" transform="translate(135.11583689859208 216.8452774933649) rotate(0 61 29)"><path d="M0.5 -1.95 L121.22 0.54 L120.25 57.83 L3.28 58.81" stroke="none" stroke-width="0" fill="#ced4da"></path><path d="M-1.34 1.82 C43.91 -1.95, 95.3 -3.32, 118.75 -2.43 M1.69 1.24 C46.54 1.78, 97.57 2.08, 121.6 -1.35 M125.3 0.42 C117.07 18.12, 122.78 28.04, 122.83 56.96 M122.09 0.58 C121.63 14.93, 122.5 29.59, 122.48 59.32 M121.28 58.67 C93.12 61.75, 61.6 59.55, -0.47 55.07 M123.72 57.51 C92.97 56.02, 68.77 54.52, -1.29 59.73 M0.17 57.29 C1.17 36.49, -1.77 18.61, 1.06 -1.77 M0.72 58.7 C-1.9 39.09, 0.89 20.96, 0.44 -1.62" stroke="#000000" stroke-width="4" fill="none"></path></g><g transform="translate(140.11583689859208 222.8452774933649) rotate(0 56 23)"><text x="56" y="32" font-family="Virgil, Segoe UI Emoji" font-size="36px" fill="#000000" text-anchor="middle" style="white-space: pre;" direction="ltr">Deisel</text></g><g stroke-linecap="round" transform="translate(129.18727034220683 93.07536800192733) rotate(357.30167814318156 64 27.5)"><path d="M-0.78 0.54 L126.25 -0.17 L131.28 55.81 L0.98 56.14" stroke="none" stroke-width="0" fill="#228be6"></path><path d="M-3.78 0.15 C49.35 -2.38, 95.59 -3.6, 131.91 -3.67 M-1.98 -0.41 C27.41 -1.71, 53.37 -2.93, 126.87 -1.94 M124.19 3.98 C130.81 14.78, 129.73 28.98, 126.11 57.22 M126.99 0.28 C127.9 15.62, 128.53 32.01, 126.67 54.02 M127.62 58.2 C83.34 56.43, 44.99 52.5, -3.03 52.4 M126.34 55.29 C103.05 53.17, 73.78 56.1, 0.12 54.92 M1.13 51.24 C-1.86 37.49, 1.02 25.97, 1.26 2.4 M-1.2 55.32 C1.19 35.06, 0.05 10.68, 0.25 -0.97" stroke="#000000" stroke-width="4" fill="none"></path></g><g transform="translate(134.18727034220683 98.07536800192733) rotate(357.30167814318156 59 22.5)"><text x="59" y="31" font-family="Virgil, Segoe UI Emoji" font-size="36px" fill="#000000" text-anchor="middle" style="white-space: pre;" direction="ltr">Hydro</text></g><g stroke-linecap="round"><g transform="translate(132.60100422908704 85.19564821208905) rotate(0 79.80905487331904 -34.895078017155626)" fill-rule="evenodd"><path d="M-1.75 -0.17 L164.72 2.83 L106.59 -72.85 L-0.49 -1.27" stroke="none" stroke-width="0" fill="#fab005" fill-rule="evenodd"></path><path d="M-0.07 -1.22 C52.5 -1.86, 115.46 -2.4, 157.85 5.41 M0.53 -0.12 C58.01 0.05, 115.73 0.19, 160.9 3.67 M163.35 1.79 C146.38 -21.52, 126.32 -41.87, 104.77 -73.81 M161.3 2.3 C144.33 -21.52, 124.15 -48.82, 106.06 -74.35 M102.22 -73 C71.55 -51.8, 35.54 -28.03, -3.73 3.45 M107.12 -75.2 C74 -51.58, 46.33 -33.01, -1.04 0.08 M0 0 C0 0, 0 0, 0 0 M0 0 C0 0, 0 0, 0 0" stroke="#000000" stroke-width="4" fill="none"></path></g></g><g transform="translate(181.56526940747585 41.10574002475198) rotate(0 40.662495937727755 19.88926431736683)"><text x="40.662495937727755" y="27.77852863473366" font-family="Virgil, Segoe UI Emoji" font-size="31.82282290778694px" fill="#000000" text-anchor="middle" style="white-space: pre;" direction="ltr">Solar</text></g><g stroke-linecap="round" transform="translate(265.13761568690506 217.29315873495807) rotate(0 61 29)"><path d="M3.28 0.81 L122.98 1.14 L121.51 56.73 L-2.99 57.24" stroke="none" stroke-width="0" fill="#ced4da"></path><path d="M-3.25 -2.43 C40.97 -2.93, 70.52 4.13, 124.48 -3.97 M-0.4 -1.35 C32.95 -1.79, 67.61 1.8, 122.21 -1.91 M122.83 -1.04 C120.66 25.39, 121.71 46.52, 123.16 55.97 M122.48 1.32 C120.59 17.23, 122.36 36.06, 122.34 57.81 M121.53 55.07 C72.61 56.01, 25.55 62.06, -0.98 54.68 M120.71 59.73 C83.74 56.46, 44.2 56.62, -0.35 58.56 M1.06 56.23 C1.79 48.45, 4.05 35.52, 1.39 -2.4 M0.44 56.38 C-0.67 38.7, -1.31 21.62, -0.88 -0.09" stroke="#000000" stroke-width="4" fill="none"></path></g><g transform="translate(270.13761568690506 223.29315873495807) rotate(0 56 23)"><text x="56" y="32" font-family="Virgil, Segoe UI Emoji" font-size="36px" fill="#000000" text-anchor="middle" style="white-space: pre;" direction="ltr">Gas</text></g><g stroke-linecap="round" transform="translate(179.14597980060353 155.65313655097236) rotate(0 61 29)"><path d="M0.98 1.14 L121.51 -1.27 L119.01 57.24 L-1.89 57.64" stroke="none" stroke-width="0" fill="#ced4da"></path><path d="M3.91 -3.67 C29.29 4.87, 68.26 -2.48, 121.17 1.05 M-1.13 -1.94 C35.33 3.29, 71.96 -0.26, 123.99 0.95 M120.11 2.22 C121.4 17.24, 123.4 32.1, 122.56 57.7 M120.67 -0.98 C122.73 17.85, 122.62 36.23, 123.6 56.3 M118.97 55.4 C78.62 59.66, 41.72 52.89, 0.58 61.02 M122.12 57.92 C91.67 60.2, 63.08 60.68, -1.88 57.09 M1.26 60.4 C3.22 47.66, 1.08 32.06, 0.64 3.16 M0.25 57.03 C-0.65 36.77, -1.13 14.93, 1.64 0.41" stroke="#000000" stroke-width="4" fill="none"></path></g><g transform="translate(184.14597980060353 161.65313655097236) rotate(0 56 23)"><text x="56" y="32" font-family="Virgil, Segoe UI Emoji" font-size="36px" fill="#000000" text-anchor="middle" style="white-space: pre;" direction="ltr">Coal</text></g><g transform="translate(466.3349320970415 370.3336276613952) rotate(0 75.5 45.5)"><text x="75.5" y="31.5" font-family="Virgil, Segoe UI Emoji" font-size="36px" fill="#000000" text-anchor="middle" style="white-space: pre;" direction="ltr">balanced</text><text x="75.5" y="77" font-family="Virgil, Segoe UI Emoji" font-size="36px" fill="#000000" text-anchor="middle" style="white-space: pre;" direction="ltr">system</text></g><g transform="translate(404.7096079304083 466.8268411000349) rotate(0 139 22.5)"><text x="139" y="32" font-family="Virgil, Segoe UI Emoji" font-size="36px" fill="#000000" text-anchor="middle" style="white-space: pre;" direction="ltr">Grid / Microgrid</text></g><g stroke-linecap="round" transform="translate(787.8938916597303 25.112925266599404) rotate(350.1614940578179 67.5 23)"><path d="M2.48 -3.97 C27.29 -1.24, 56 -3.08, 132.31 -2.25 M0.21 -1.91 C29.41 -1.28, 54.72 -1.82, 134.48 -0.95 M136.16 -2.03 C135.36 16.06, 135.37 33.67, 137.64 43.34 M135.34 -0.19 C136.81 9.86, 135.71 22.87, 133.54 44.49 M134.02 42.68 C103.87 51.35, 69.17 45.74, 3.47 46.24 M134.65 46.56 C93.14 45.21, 53.09 46.65, -0.89 46.63 M1.39 43.6 C-0.17 32.6, 2.01 13.76, -3.23 0.5 M-0.88 45.91 C1.82 34.85, 0.67 23.45, -0.24 -0.64" stroke="#000000" stroke-width="4" fill="none"></path></g><g transform="translate(10 180.78025103017507) rotate(0 79.5 35.5)"><text x="79.5" y="24.5" font-family="Virgil, Segoe UI Emoji" font-size="28px" fill="#000000" text-anchor="middle" style="white-space: pre;" direction="ltr">      Fossil</text><text x="79.5" y="60" font-family="Virgil, Segoe UI Emoji" font-size="28px" fill="#000000" text-anchor="middle" style="white-space: pre;" direction="ltr">Fuels</text></g><g transform="translate(300.55918717939403 18.40061328835293) rotate(0 76 18)"><text x="76" y="25" font-family="Virgil, Segoe UI Emoji" font-size="28px" fill="#000000" text-anchor="middle" style="white-space: pre;" direction="ltr">Renewables</text></g><g transform="translate(792.8938916597303 30.112925266599404) rotate(350.1614940578179 62.5 18)"><text x="62.5" y="25" font-family="Virgil, Segoe UI Emoji" font-size="28px" fill="#000000" text-anchor="middle" style="white-space: pre;" direction="ltr">School</text></g><g stroke-linecap="round" transform="translate(729.0135255250448 88.59825738016355) rotate(355.50254344949434 67.5 23)"><path d="M-0.24 -0.79 C24.42 -2.96, 50.35 -1.79, 138.3 0.42 M-0.12 0.41 C27.12 -2.23, 56.39 -1.71, 135.09 0.58 M135.56 0.97 C137.77 8.81, 133.18 23.83, 134.28 46.67 M135.5 -0.23 C134.27 11.85, 134.43 24.87, 136.72 45.51 M132.6 43.41 C109.18 48.28, 76.27 45.95, 0.17 45.29 M133.06 46.53 C89.81 45.4, 47.59 46.54, 0.72 46.7 M2.82 46.89 C-3.38 35.46, -2.09 23.15, 0.54 -1.75 M0.49 46.57 C-1 31.76, -2.25 18.42, -0.95 -0.18" stroke="#000000" stroke-width="4" fill="none"></path></g><g transform="translate(734.0135255250448 93.59825738016355) rotate(355.50254344949434 62.5 18)"><text x="62.5" y="25" font-family="Virgil, Segoe UI Emoji" font-size="28px" fill="#000000" text-anchor="middle" style="white-space: pre;" direction="ltr">Hospital</text></g><g stroke-linecap="round" transform="translate(717.513336389909 141.8674504178412) rotate(0 67.5 23)"><path d="M-2.69 -2.25 C40.17 -0.55, 91.4 0.96, 131.19 3.98 M-0.52 -0.95 C48.03 -0.98, 93.94 0.02, 133.99 0.28 M137.64 -2.66 C133.18 14.36, 134.41 27.59, 134.62 49.2 M133.54 -1.51 C133.93 8.03, 136.95 19.3, 133.34 46.29 M138.47 46.24 C84.14 42.16, 33.75 43.54, 1.13 42.24 M134.11 46.63 C101.83 48.48, 66.97 47.41, -1.2 46.32 M-3.23 46.5 C-2.6 27.78, -0.11 9.37, -0.17 3.28 M-0.24 45.36 C-1.72 30.88, -1.17 16.35, -0.8 1.81" stroke="#000000" stroke-width="4" fill="none"></path></g><g transform="translate(722.513336389909 146.8674504178412) rotate(0 62.5 18)"><text x="62.5" y="25" font-family="Virgil, Segoe UI Emoji" font-size="28px" fill="#000000" text-anchor="middle" style="white-space: pre;" direction="ltr">City Hall</text></g><g stroke-linecap="round" transform="translate(715.9913605335146 199.08257934679625) rotate(357.90863144101155 67.5 41)"><path d="M-3.88 -1.08 C41.12 1.94, 71.83 5.5, 136.9 -0.23 M1.11 -0.42 C43.38 1.86, 85.57 1.56, 134.85 0.28 M133.05 0.9 C135.37 27.26, 135.71 56.37, 131.6 83 M133.7 -1.87 C135.52 23.15, 132.14 47.57, 136.51 80.8 M134.85 79.91 C103.41 81.45, 72.61 78.41, -1.82 78.11 M136.2 83.76 C91.62 83.55, 45.61 83.17, 1.58 83.41 M-1.95 81.22 C1.86 53.83, 1.15 32.44, 0.81 0.98 M-1.49 81.62 C-0.75 54.88, -0.6 29.93, 0.5 -1.41" stroke="#000000" stroke-width="4" fill="none"></path></g><g transform="translate(720.9913605335146 204.08257934679625) rotate(357.90863144101155 62.5 36)"><text x="62.5" y="25" font-family="Virgil, Segoe UI Emoji" font-size="28px" fill="#000000" text-anchor="middle" style="white-space: pre;" direction="ltr">Sewer &amp; </text><text x="62.5" y="61" font-family="Virgil, Segoe UI Emoji" font-size="28px" fill="#000000" text-anchor="middle" style="white-space: pre;" direction="ltr">Water</text></g><g stroke-linecap="round" transform="translate(872.7534287866592 76.51571807055484) rotate(0 77.5 29)"><path d="M3.3 0.42 C33.97 4.82, 77.46 0.61, 155.83 -1.04 M0.09 0.58 C38.15 0.93, 78.19 0.93, 155.48 1.32 M154.28 0.67 C154.06 16.75, 151.04 28.1, 154.53 55.07 M156.72 -0.49 C152.58 13.3, 155.76 24.83, 153.71 59.73 M155.17 57.29 C108.69 52.63, 58.31 52.5, 1.06 56.23 M155.72 58.7 C102.42 61.05, 53.82 62.15, 0.44 56.38 M0.54 56.25 C0.39 43.16, 1.38 22.74, 1.14 -0.49 M-0.95 57.82 C0.07 44.26, 1.37 25.48, 0.49 -1.98" stroke="#000000" stroke-width="4" fill="none"></path></g><g transform="translate(877.7534287866592 88.01571807055484) rotate(0 72.5 17.5)"><text x="72.5" y="24" font-family="Virgil, Segoe UI Emoji" font-size="28px" fill="#000000" text-anchor="middle" style="white-space: pre;" direction="ltr">Homes</text></g><g stroke-linecap="round" transform="translate(869.8549459381711 135.19928325399275) rotate(0 80 27)"><path d="M-3.81 3.98 C45.57 -0.57, 88.15 -1.38, 158.11 2.22 M-1.01 0.28 C44.49 -0.65, 89.76 0.39, 158.67 -0.98 M159.62 3.2 C156.41 18.41, 159.34 31.89, 156.97 51.4 M158.34 0.29 C162.44 9.96, 159.64 24.06, 160.12 53.92 M161.13 50.24 C118.54 49.55, 81.78 51.66, 1.26 56.4 M158.8 54.32 C99.47 56.52, 36.23 53.5, 0.25 53.03 M-0.17 57.28 C0.67 39.84, 1 23.22, -1.27 -2.99 M-0.8 55.81 C1.01 37.41, 1 21.66, 0.95 -1.39" stroke="#000000" stroke-width="4" fill="none"></path></g><g transform="translate(874.8549459381711 144.69928325399275) rotate(0 75 17.5)"><text x="75" y="24" font-family="Virgil, Segoe UI Emoji" font-size="28px" fill="#000000" text-anchor="middle" style="white-space: pre;" direction="ltr">Grocery</text></g><g stroke-linecap="round" transform="translate(864.3164409056972 196.14564310020236) rotate(2.457094433569866 82 45)"><path d="M1.9 -0.23 C51.77 -4.3, 99.99 -1.04, 163.16 0.18 M-0.15 0.28 C54.44 0.86, 106.59 -1.43, 164.45 -0.36 M160.6 1 C163.36 25.58, 160.81 54.42, 160.27 93.45 M165.51 -1.2 C161.21 26.52, 162.63 49.5, 162.96 90.08 M162.18 86.11 C118.77 85.15, 72.67 89.32, 3.53 91.43 M165.58 91.41 C109.54 88.91, 54.45 89.55, -0.39 90.27 M0.81 90.98 C1.22 66.45, -1.2 40.9, -0.76 -1.89 M0.5 88.59 C1.21 61.83, 1.67 36.22, 0.16 1.24" stroke="#000000" stroke-width="4" fill="none"></path></g><g transform="translate(869.3164409056972 206.1456431002024) rotate(2.457094433569866 77 35)"><text x="77" y="24" font-family="Virgil, Segoe UI Emoji" font-size="28px" fill="#000000" text-anchor="middle" style="white-space: pre;" direction="ltr">Processing </text><text x="77" y="59" font-family="Virgil, Segoe UI Emoji" font-size="28px" fill="#000000" text-anchor="middle" style="white-space: pre;" direction="ltr">plants</text></g><g stroke-linecap="round"><g transform="translate(256.03265669152415 110.0243359078577) rotate(327.32185381597225 59.52020835734842 3.5793064400781986)" fill-rule="evenodd"><path d="M2.48 1.63 L43.64 -51.83 L37.26 -21.13 L60.59 -21.45 L56.81 -8.9 L98.5 -29.89 L80.05 -8.93 L82.83 6.75 L103.5 -2.9 L118.93 -0.81 L97.33 30.42 L84.89 52.91 L114.3 22.55 L90.53 62 L3 1.25" stroke="none" stroke-width="0" fill="#15aabf" fill-rule="evenodd"></path><path d="M0.83 -1.04 C14.22 -18.66, 31.88 -41.62, 42.74 -54.41 M0.48 1.32 C11.8 -17.54, 26.63 -33.36, 41.91 -52.57 M41.11 -55.32 C36.81 -44.23, 34.84 -27.43, 37.27 -27.44 M40.28 -50.65 C41.08 -43.61, 38.87 -34.55, 37.9 -23.55 M39.31 -25.88 C43.62 -21.33, 50 -22.3, 59.59 -26.51 M38.69 -25.73 C44.8 -25.37, 50.47 -24.13, 57.33 -24.2 M59.16 -24.52 C57.53 -20.25, 58.28 -12.99, 58.74 -8.81 M58.62 -25.76 C59.41 -18.77, 59.07 -10.08, 59.97 -6.71 M60.54 -5.26 C68.5 -17.62, 79.05 -19.96, 92.43 -29.9 M60.05 -6.59 C69.47 -16.56, 79.08 -21.48, 94.89 -32.99 M91.18 -31.03 C91.65 -24.64, 85.08 -12.31, 78.1 -6.88 M93.08 -34.39 C91.82 -27.15, 86.11 -21.6, 81.21 -6.2 M79.08 -8.02 C78.19 -5.96, 79.38 4.43, 79.87 8.34 M80.98 -7.12 C80.13 -2.32, 81.29 2.34, 81.44 7.96 M77.79 11.32 C91.21 -0.45, 95.53 -3.39, 101.05 -5.74 M80.76 8.75 C87.98 6.36, 96.3 0.61, 103.02 -4.32 M103.03 -6.11 C107.1 -2.03, 114.86 -3.02, 122.8 -4.09 M103 -3.52 C108.37 -2.06, 114.34 -3.08, 121.61 -0.4 M116.78 -1.34 C111.19 7.55, 107.14 16.35, 99.16 27.82 M121.09 -1.68 C115.4 11.31, 107.16 20.01, 99.32 28.03 M99.11 30.27 C93.75 35.72, 93.61 44.8, 83.58 48.93 M100.92 30.77 C98.75 34.97, 93.82 43.47, 87.72 51.1 M86.95 53.52 C94.55 45.01, 99.21 35.48, 111.2 21.1 M88.29 51.98 C95.76 44.78, 107.12 34.48, 112.56 25.96 M117.4 26.37 C109.67 35.96, 101.38 41.43, 92.58 58.36 M112.54 24.06 C104.18 37.57, 98.1 48.97, 88.77 62.23 M91.38 62.47 C69.76 47.47, 44.48 27.25, -3.76 -2.9 M90.44 59.82 C54.6 41.3, 24.33 19.8, -0.85 0.68 M0 0 C0 0, 0 0, 0 0 M0 0 C0 0, 0 0, 0 0" stroke="#000000" stroke-width="4" fill="none"></path></g></g><g transform="translate(279.9254685180963 103.97908234935781) rotate(357.32185381597225 36.5 22.5)"><text x="36.5" y="32" font-family="Virgil, Segoe UI Emoji" font-size="36px" fill="#000000" text-anchor="middle" style="white-space: pre;" direction="ltr">Wind</text></g></svg>